<?xml version="1.0" encoding="UTF-8" standalone="no"?>
<!-- Generated by IcoMoon.io -->

<svg
   version="1.1"
   width="28"
   height="28"
   viewBox="0 0 28 28"
   id="svg1060"
   sodipodi:docname="bell.svg"
   inkscape:version="1.1.1 (3bf5ae0d25, 2021-09-20)"
   xmlns:inkscape="http://www.inkscape.org/namespaces/inkscape"
   xmlns:sodipodi="http://sodipodi.sourceforge.net/DTD/sodipodi-0.dtd"
   xmlns="http://www.w3.org/2000/svg"
   xmlns:svg="http://www.w3.org/2000/svg">
  <defs
     id="defs1064" />
  <sodipodi:namedview
     id="namedview1062"
     pagecolor="#ffffff"
     bordercolor="#666666"
     borderopacity="1.0"
     inkscape:pageshadow="2"
     inkscape:pageopacity="0.0"
     inkscape:pagecheckerboard="0"
     showgrid="false"
     inkscape:zoom="23"
     inkscape:cx="5.7826087"
     inkscape:cy="14"
     inkscape:window-width="1908"
     inkscape:window-height="1053"
     inkscape:window-x="10"
     inkscape:window-y="0"
     inkscape:window-maximized="1"
     inkscape:current-layer="svg1060" />
  <title
     id="title1056">bell</title>
  <path
     d="m 14.17621,23.1952 c 0,-0.103722 -0.07683,-0.183904 -0.17621,-0.183904 -0.869772,0 -1.58589,-0.747385 -1.58589,-1.655136 0,-0.103721 -0.07683,-0.183904 -0.17621,-0.183904 -0.09938,0 -0.17621,0.08018 -0.17621,0.183904 0,1.115193 0.869773,2.022943 1.93831,2.022943 0.09938,0 0.17621,-0.08018 0.17621,-0.183903 z m 8.986712,-3.310272 c 0,0.804764 -0.638585,1.471232 -1.409681,1.471232 H 16.81936 c 0,1.620562 -1.266598,2.942464 -2.81936,2.942464 -1.552762,0 -2.81936,-1.321902 -2.81936,-2.942464 H 6.2467584 c -0.771095,0 -1.4096802,-0.666468 -1.4096802,-1.471232 1.6295903,-1.436658 3.5242006,-4.011314 3.5242006,-9.563008 0,-2.2068478 1.7508232,-4.6204039 4.6695652,-5.0691297 -0.05497,-0.1375601 -0.0881,-0.2876258 -0.0881,-0.4479901 0,-0.6090901 0.473654,-1.103424 1.057261,-1.103424 0.583608,0 1.05726,0.4943339 1.05726,1.103424 0,0.1610998 -0.03313,0.31043 -0.08811,0.4479901 2.918743,0.4479902 4.669566,2.8622819 4.669566,5.0691297 0,5.551694 1.89461,8.12635 3.524201,9.563008 z"
     id="path1058"
     style="stroke-width:0.720064" />
</svg>
