<?xml version="1.0" encoding="UTF-8" standalone="no"?>
<!-- Generated by IcoMoon.io -->

<svg
   version="1.1"
   width="32"
   height="32"
   viewBox="0 0 32 32"
   id="svg2813"
   sodipodi:docname="close.svg"
   inkscape:version="1.1.1 (3bf5ae0d25, 2021-09-20)"
   xmlns:inkscape="http://www.inkscape.org/namespaces/inkscape"
   xmlns:sodipodi="http://sodipodi.sourceforge.net/DTD/sodipodi-0.dtd"
   xmlns="http://www.w3.org/2000/svg"
   xmlns:svg="http://www.w3.org/2000/svg"
   xmlns:rdf="http://www.w3.org/1999/02/22-rdf-syntax-ns#"
   xmlns:cc="http://creativecommons.org/ns#"
   xmlns:dc="http://purl.org/dc/elements/1.1/">
  <defs
     id="defs2817">
    <clipPath
       clipPathUnits="userSpaceOnUse"
       id="clipPath3077">
      <path
         id="path3079"
         style="fill:#ff0000;fill-opacity:1;fill-rule:nonzero;stroke:none"
         d="M 0.00390625,28.636719 V 31.625 H 4.9824219 C 4.7946909,31.544328 4.7027654,31.504789 4.4707031,31.408203 3.39516,30.640456 3.2132025,30.560288 2.1367188,29.496094 2.116583,29.476188 2.1012728,29.452351 2.0820312,29.431641 1.6912402,29.309824 1.3027674,29.176896 0.91992188,29.033203 0.61061998,28.917113 0.29143563,28.80039 0.00390625,28.636719 Z M 29.183594,31.320312 c -0.122057,0.09396 -0.263935,0.197506 -0.419922,0.304688 h 0.419922 z" />
    </clipPath>
    <clipPath
       clipPathUnits="userSpaceOnUse"
       id="clipPath3087">
      <path
         id="path3089"
         style="fill:#ff0000;fill-opacity:1;fill-rule:nonzero;stroke:none"
         d="m 31.998047,29.039062 c -0.0081,0.0055 -0.0156,0.01177 -0.02344,0.01758 -0.523682,0.387971 -1.062571,0.75538 -1.558593,1.179687 -0.04429,0.0407 -0.0606,0.05392 -0.101563,0.0918 h 1.683594 z" />
    </clipPath>
    <clipPath
       clipPathUnits="userSpaceOnUse"
       id="clipPath3097">
      <path
         id="path3099"
         style="fill:#ff0000;fill-opacity:1;fill-rule:nonzero;stroke:none"
         d="M 6.8808594,1.9980469 V 3.4023438 C 7.2497653,3.2131213 7.6547213,3.0965122 8.0351562,2.9355469 8.1830939,2.8874412 8.3294984,2.8356653 8.4785156,2.7910156 9.1023172,2.6041072 9.7547066,2.4964821 10.400391,2.4238281 c 0.08783,-0.00988 0.177365,-0.00902 0.265625,-0.013672 0.5058,-0.022272 0.332828,-0.017813 0.767578,-0.03125 0.08929,-0.00276 0.179195,-0.019276 0.267578,-0.00781 0.04795,-0.01735 0.09637,-0.034096 0.144531,-0.050781 0.347311,-0.1111553 0.696052,-0.2177521 1.044922,-0.3222656 z m 14.2050786,0 c -0.128906,0.040106 -0.235983,0.1343891 -0.322266,0.2734375 0.141323,0.058665 0.276652,0.1227654 0.398437,0.1992187 0.0419,0.026301 0.07922,0.058976 0.119141,0.087891 0.703469,-2.961e-4 1.395474,0.3885083 1.851562,1.1621093 2.61e-4,1.243e-4 -2.6e-4,0.00183 0,0.00195 0.705102,0.336744 0.710442,0.2216394 1.708985,1.7617188 0.177019,0.2730014 0.142091,0.6336009 0.212891,0.9511719 -0.272175,1.5790791 -0.04724,1.169745 -0.632813,2.2382812 -0.09183,0.1675673 -0.194839,0.3282294 -0.292969,0.4921875 -0.02044,0.034153 -0.04399,0.066427 -0.06641,0.099609 0.05788,0.019402 0.101495,0.031955 0.162109,0.052734 0.427263,0.1464706 0.752223,0.5057344 1.058594,0.8457022 V 1.9980469 h -3.791015 c 0.128839,0.07705 0.240769,0.1534753 0.380859,0.2539062 0.04029,0.031085 0.164904,0.119639 0.121094,0.09375 -0.13779,-0.081424 -0.264247,-0.1822936 -0.404297,-0.2597656 -0.08386,-0.046392 -0.15996,-0.07055 -0.232422,-0.087891 z m -9.427735,0.3886719 c -0.03215,0.00425 -0.06873,0.0094 -0.08789,0.015625 -0.01288,0.00418 -0.04424,0.029181 -0.03125,0.025391 0.04024,-0.011743 0.0796,-0.027094 0.119141,-0.041016 z M 9.0566406,10.837891 c -0.2149612,0.111984 -0.4192114,0.213459 -0.921875,0.43164 -0.09885,0.04291 -0.2029976,0.06981 -0.3046875,0.105469 -0.3342989,0.117219 -0.6472869,0.190872 -0.9492187,0.246094 v 1.933594 c 0.6823637,-0.868844 1.4526949,-1.79927 2.1640625,-2.644532 0.00422,-0.02399 0.00764,-0.04826 0.011719,-0.07226 z M 6.8808594,21.742188 v 0.865234 c 0.1809894,-0.0065 0.3619861,-0.01291 0.5429687,-0.01953 -0.1691048,-0.231232 -0.335673,-0.482253 -0.5234375,-0.810547 -0.00674,-0.01179 -0.012846,-0.02342 -0.019531,-0.03516 z" />
    </clipPath>
  </defs>
  <sodipodi:namedview
     id="namedview2815"
     pagecolor="#ffffff"
     bordercolor="#666666"
     borderopacity="1.0"
     inkscape:pageshadow="2"
     inkscape:pageopacity="0.0"
     inkscape:pagecheckerboard="0"
     showgrid="false"
     inkscape:zoom="20.125"
     inkscape:cx="6.5838509"
     inkscape:cy="16"
     inkscape:window-width="1908"
     inkscape:window-height="1053"
     inkscape:window-x="0"
     inkscape:window-y="0"
     inkscape:window-maximized="1"
     inkscape:current-layer="svg2813" />
  <title
     id="title2805">amazon</title>
  <path
     d="M28.925 27.663c-3.506 2.587-8.581 3.962-12.956 3.962-6.131 0-11.65-2.262-15.825-6.038-0.325-0.294-0.038-0.7 0.356-0.469 4.506 2.625 10.081 4.2 15.838 4.2 3.881 0 8.15-0.806 12.081-2.475 0.587-0.25 1.087 0.394 0.506 0.819z"
     id="path2807"
     clip-path="url(#clipPath3077)" />
  <path
     d="M30.381 26c-0.45-0.575-2.962-0.275-4.094-0.137-0.344 0.038-0.394-0.256-0.087-0.475 2.006-1.406 5.294-1 5.675-0.531 0.387 0.475-0.1 3.769-1.981 5.344-0.288 0.244-0.563 0.113-0.438-0.206 0.431-1.056 1.375-3.419 0.925-3.994z"
     id="path2809"
     clip-path="url(#clipPath3087)" />
  <path
     d="M22.106 23.675l0.006 0.006c0.775-0.681 2.169-1.9 2.956-2.556 0.313-0.25 0.256-0.669 0.012-1.019-0.706-0.975-1.456-1.769-1.456-3.569v-6c0-2.544 0.175-4.875-1.694-6.625-1.475-1.413-3.925-1.913-5.8-1.913-3.662 0-7.75 1.369-8.606 5.894-0.094 0.481 0.263 0.738 0.575 0.806l3.731 0.406c0.35-0.019 0.6-0.363 0.669-0.713 0.319-1.556 1.625-2.313 3.094-2.313 0.794 0 1.694 0.287 2.163 1 0.538 0.794 0.469 1.875 0.469 2.794v0.5c-2.231 0.25-5.15 0.412-7.238 1.331-2.412 1.044-4.106 3.169-4.106 6.294 0 4 2.519 6 5.763 6 2.738 0 4.231-0.644 6.344-2.806 0.7 1.012 0.925 1.506 2.206 2.569 0.294 0.156 0.656 0.144 0.913-0.087zM18.225 14.287c0 1.5 0.038 2.75-0.719 4.081-0.613 1.087-1.581 1.75-2.662 1.75-1.475 0-2.338-1.125-2.338-2.788 0-3.281 2.944-3.875 5.725-3.875v0.831z"
     id="path2811"
     clip-path="url(#clipPath3097)" />
  <path
     style="display:inline;fill:#00ffff;stroke-width:0.0330189"
     d="m 11.808499,22.722163 c -0.08736,-0.04085 -0.536363,-0.468211 -1.326182,-1.262247 -1.2955453,-1.302463 -1.3197023,-1.333404 -1.2368823,-1.58422 0.02655,-0.08039 0.557881,-0.632523 1.9025433,-1.977001 1.02614,-1.026002 1.865709,-1.880414 1.865709,-1.898695 0,-0.01828 -0.839856,-0.872693 -1.866347,-1.898695 -2.0145783,-2.013616 -1.9804693,-1.973491 -1.8979893,-2.232684 0.05629,-0.176898 2.3541083,-2.4960705 2.5707843,-2.5946778 0.29264,-0.1331786 0.183588,-0.2225539 2.26705,1.8580088 1.035353,1.033912 1.896973,1.87984 1.91471,1.87984 0.01774,0 0.879357,-0.845928 1.91471,-1.87984 2.083462,-2.0805627 1.97441,-1.9911874 2.267051,-1.8580088 0.210318,0.095715 2.514396,2.4173898 2.568676,2.5882938 0.08474,0.266814 0.127082,0.216811 -1.896008,2.239068 -1.026422,1.026002 -1.866222,1.880414 -1.866222,1.898695 0,0.01828 0.8398,0.872693 1.866222,1.898695 2.023089,2.022257 1.980748,1.972254 1.896008,2.239067 -0.05428,0.170905 -2.358358,2.49258 -2.568676,2.588295 -0.292641,0.133178 -0.18359,0.222553 -2.267052,-1.858009 -1.035353,-1.033912 -1.897195,-1.87984 -1.915204,-1.87984 -0.01801,0 -0.864771,0.833549 -1.881691,1.852332 -1.055922,1.057855 -1.894518,1.87217 -1.955197,1.898585 -0.138625,0.06034 -0.196607,0.05758 -0.356013,-0.01696 z"
     id="path2142" />
  <path
     style="fill:#000000;stroke-width:0.0899696"
     d="m 23.086342,27.878944 c -0.171966,-0.10061 -1.828867,-1.63625 -3.681999,-3.41256 l -3.36933,-3.229652 -0.429418,0.388655 c -0.236182,0.21376 -1.832445,1.731906 -3.547253,3.373655 -2.7884868,2.669684 -3.1487268,2.985 -3.4102871,2.985 -0.2446629,0 -0.4664045,-0.155169 -1.3570096,-0.949583 -0.585508,-0.52227 -1.6562283,-1.5579 -2.3793752,-2.301399 -1.0969896,-1.127862 -1.314814,-1.396361 -1.314814,-1.6207 0,-0.235335 0.4354847,-0.693674 3.4900067,-3.673169 l 3.4900082,-3.404283 -0.262833,-0.28186 C 10.169484,15.598023 8.6225355,14.076842 6.8763813,12.372644 4.7903676,10.336754 3.6795907,9.1895618 3.6375118,9.0275957 3.5978647,8.8749901 3.6215033,8.6937732 3.6995834,8.5518707 3.8748709,8.2332785 7.8739495,4.3487157 8.2574922,4.1244829 8.5495393,3.953741 8.5887801,3.9507778 8.8524758,4.0795551 c 0.1552764,0.07583 1.6416262,1.4365687 3.3030062,3.0238663 1.661382,1.5872974 3.213726,3.0607136 3.449656,3.2742576 l 0.428963,0.388261 3.415554,-3.2716441 c 1.878556,-1.799404 3.542597,-3.334861 3.69787,-3.4121274 0.261847,-0.1302992 0.301665,-0.1288559 0.549218,0.0199 0.401257,0.2411223 2.300498,2.0177177 3.576656,3.3456875 0.941307,0.979524 1.129745,1.2214002 1.129745,1.4501077 0,0.2420134 -0.365526,0.6314836 -3.089343,3.2917043 -1.69914,1.659468 -3.268885,3.201998 -3.488325,3.427848 l -0.398979,0.410635 3.488325,3.408148 c 3.046162,2.976148 3.488322,3.442104 3.488322,3.676054 0,0.220321 -0.201169,0.477248 -1.13255,1.446443 -1.312941,1.366249 -3.291744,3.207628 -3.635036,3.382592 -0.209678,0.106864 -0.272058,0.09979 -0.549216,-0.06235 z"
     id="path3271" />
  <metadata
     id="metadata3346">
    <rdf:RDF>
      <cc:Work
         rdf:about="">
        <dc:title>amazon</dc:title>
      </cc:Work>
    </rdf:RDF>
  </metadata>
</svg>
