<!-- Generated by IcoMoon.io -->
<svg version="1.1" xmlns="http://www.w3.org/2000/svg" width="32" height="28" viewBox="0 0 32 28">
<title>simplybuilt</title>
<path d="M13.484 16.125c0-2.344-1.891-4.234-4.234-4.234-2.328 0-4.219 1.891-4.219 4.234 0 2.328 1.891 4.219 4.219 4.219 2.344 0 4.234-1.891 4.234-4.219zM26.969 16.109c0-2.328-1.891-4.219-4.219-4.219-2.344 0-4.234 1.891-4.234 4.219 0 2.344 1.891 4.234 4.234 4.234 2.328 0 4.219-1.891 4.219-4.234zM32 3.469v21.063c0 0.922-0.75 1.672-1.687 1.672h-28.625c-0.938 0-1.687-0.75-1.687-1.672v-21.063c0-0.922 0.75-1.672 1.687-1.672h6.734c0.922 0 1.687 0.75 1.687 1.672v2.516h11.781v-2.516c0-0.922 0.766-1.672 1.687-1.672h6.734c0.938 0 1.687 0.75 1.687 1.672z"></path>
</svg>
