<?xml version="1.0" encoding="UTF-8" standalone="no"?>
<!-- Generator: Adobe Illustrator 16.0.0, SVG Export Plug-In . SVG Version: 6.00 Build 0)  -->

<svg
   version="1.1"
   id="Layer_1"
   x="0px"
   y="0px"
   width="100px"
   height="100px"
   viewBox="0 0 100 100"
   enable-background="new 0 0 100 100"
   xml:space="preserve"
   sodipodi:docname="game.svg"
   inkscape:version="1.1.1 (3bf5ae0d25, 2021-09-20)"
   xmlns:inkscape="http://www.inkscape.org/namespaces/inkscape"
   xmlns:sodipodi="http://sodipodi.sourceforge.net/DTD/sodipodi-0.dtd"
   xmlns="http://www.w3.org/2000/svg"
   xmlns:svg="http://www.w3.org/2000/svg"><defs
   id="defs7" /><sodipodi:namedview
   id="namedview5"
   pagecolor="#ffffff"
   bordercolor="#666666"
   borderopacity="1.0"
   inkscape:pageshadow="2"
   inkscape:pageopacity="0.0"
   inkscape:pagecheckerboard="0"
   showgrid="false"
   inkscape:snap-bbox="false"
   inkscape:zoom="6.44"
   inkscape:cx="20.652174"
   inkscape:cy="50"
   inkscape:window-width="1908"
   inkscape:window-height="1053"
   inkscape:window-x="10"
   inkscape:window-y="0"
   inkscape:window-maximized="1"
   inkscape:current-layer="Layer_1" />
<path
   fill-rule="evenodd"
   clip-rule="evenodd"
   d="m 95.190804,78.666873 c -3.222274,2.285279 -8.254915,2.115958 -11.353298,-0.76795 -3.288125,-3.059782 -5.326183,-6.762982 -8.411173,-10.462904 -1.463249,-1.752192 -2.850601,-2.741897 -6.16105,-1.67354 -6.503703,2.102849 -13.529755,2.605348 -20.276775,2.458968 -5.492487,-0.0426 -11.652421,-0.280744 -18.15724,-2.380316 -3.309332,-1.069449 -4.696685,-0.08084 -6.158818,1.67354 -3.086106,3.69883 -5.123047,7.399845 -8.412289,10.461812 C 13.16401,80.858206 8.130253,81.029711 4.906863,78.742248 0.31397867,75.485835 -0.72960501,72.711166 0.44345001,68.362365 2.2861844,61.527285 5.868969,47.828723 7.6469677,40.976164 11.182875,27.351884 14.370549,25.132149 26.863418,24.53352 c 2.887434,-0.137641 6.658845,-0.156212 9.061878,3.670428 1.062558,1.693203 2.863995,1.422291 4.552703,1.419014 h 19.141669 c 1.689824,0.0033 3.487913,0.197722 4.55382,-1.495481 2.4008,-3.82664 6.171095,-3.810254 9.059645,-3.671521 12.492869,0.599722 15.696169,2.813995 19.217566,16.443737 2.358388,9.136745 4.527033,17.706539 7.203518,27.385109 1.202073,4.343339 0.130587,7.124562 -4.463413,10.382067 z M 34.607144,43.53891 h -5.020363 v -4.913568 c 0,-1.446323 -1.198727,-2.619549 -2.676486,-2.619549 h -2.081586 c -1.478876,0 -2.676486,1.173226 -2.676486,2.619549 V 43.53891 H 17.13186 c -1.477759,0 -2.676485,1.172134 -2.676485,2.619549 v 2.037307 c 0,1.446323 1.198726,2.619549 2.676485,2.619549 h 5.020363 v 4.91466 c 0,1.446323 1.198726,2.617365 2.676486,2.617365 h 2.081586 c 1.477759,0 2.676486,-1.171042 2.676486,-2.617365 v -4.91466 h 5.020363 c 1.477759,0 2.675369,-1.173226 2.675369,-2.619549 v -2.036214 c 0,-1.447416 -1.19761,-2.620642 -2.675369,-2.620642 z M 72.25875,35.883445 c -2.775821,0 -5.029292,2.204442 -5.029292,4.922307 0,2.716772 2.253471,4.920121 5.029292,4.920121 2.776937,0 5.030408,-2.203349 5.030408,-4.920121 -0.0011,-2.717865 -2.253471,-4.922307 -5.030408,-4.922307 z m -7.321828,12.315598 c -2.774705,0 -5.02706,2.203349 -5.02706,4.920121 0,2.717865 2.252355,4.922307 5.02706,4.922307 2.776937,0 5.029292,-2.204442 5.029292,-4.922307 0,-2.716772 -2.252355,-4.920121 -5.029292,-4.920121 z m 14.643656,0 c -2.77917,0 -5.02706,2.203349 -5.02706,4.920121 0,2.717865 2.24789,4.922307 5.02706,4.922307 2.776937,0 5.02706,-2.204442 5.02706,-4.922307 0,-2.716772 -2.250123,-4.920121 -5.02706,-4.920121 z"
   id="path2"
   style="stroke-width:1.1042" />
</svg>
