<!-- Generated by IcoMoon.io -->
<svg version="1.1" xmlns="http://www.w3.org/2000/svg" width="28" height="28" viewBox="0 0 28 28">
<title>heartbeat</title>
<path d="M20 16h4.766c-0.187 0.203-0.313 0.313-0.344 0.344l-9.734 9.375c-0.187 0.187-0.438 0.281-0.688 0.281s-0.5-0.094-0.688-0.281l-9.75-9.406c-0.031-0.016-0.156-0.125-0.328-0.313h5.766c0.453 0 0.859-0.313 0.969-0.75l1.094-4.391 2.969 10.422c0.125 0.422 0.516 0.719 0.969 0.719v0c0.438 0 0.828-0.297 0.953-0.719l2.281-7.578 0.875 1.75c0.172 0.328 0.516 0.547 0.891 0.547zM28 9.312c0 1.797-0.781 3.437-1.609 4.688h-5.766l-1.734-3.453c-0.172-0.359-0.578-0.578-0.969-0.547-0.422 0.047-0.766 0.313-0.875 0.719l-2.016 6.719-3.063-10.719c-0.125-0.422-0.516-0.719-0.984-0.719-0.453 0-0.844 0.313-0.953 0.75l-1.813 7.25h-6.609c-0.828-1.25-1.609-2.891-1.609-4.688 0-4.578 2.797-7.313 7.469-7.313 2.734 0 5.297 2.156 6.531 3.375 1.234-1.219 3.797-3.375 6.531-3.375 4.672 0 7.469 2.734 7.469 7.313z"></path>
</svg>
