<?xml version="1.0" encoding="utf-8"?>
<!-- Svg Vector Icons : http://www.onlinewebfonts.com/icon -->
<!DOCTYPE svg PUBLIC "-//W3C//DTD SVG 1.1//EN" "http://www.w3.org/Graphics/SVG/1.1/DTD/svg11.dtd">
<svg version="1.1" xmlns="http://www.w3.org/2000/svg" xmlns:xlink="http://www.w3.org/1999/xlink" x="0px" y="0px" viewBox="0 0 1000 1000" enable-background="new 0 0 1000 1000" xml:space="preserve">
<metadata> Svg Vector Icons : http://www.onlinewebfonts.com/icon </metadata>
<g><path d="M985.6,225.1C971,147.9,929.4,87.9,862.2,46.9c-34.6-21.2-74-33.4-117.2-36.3c-5.7-0.4-11.5-0.6-17.1-0.6c-39.9,0-77.2,9.9-110.6,29.4c-33.5,19.6-62.5,46.5-88.6,82.1c-5.8,7.9-11.1,16.1-16.2,24c-3.6,5.6-7.4,11.4-11.2,16.9c-0.5,0.7-1,1-1.2,1c-0.3,0-1-0.4-1.8-1.4c-1.8-2.4-3.5-5.2-5.3-8.2l-0.1-0.1c-0.6-1-1.2-2-1.9-3.1c-20.4-32.7-42.2-59.2-66.8-81c-26-23-53-38.9-82.5-48.8c-22-7.4-44.6-11-69.3-11c-0.4,0-0.8,0-1.1,0c-0.4,0-0.8,0-1.2,0c-0.3,0-0.5,0-0.8,0c-1.2,0-2.4,0-3.6,0.1V10C125,10,10.8,122,10.4,260.3c-0.3,6.8-0.5,13.6-0.4,20.6c0.9,40.6,7.3,81.8,19.1,122.4c18.6,64.1,48.6,127.5,91.6,193.8C158.3,655,203.7,713,259.4,774.4c58,63.9,124,129.3,202,200c11.3,10.2,24.6,15.6,38.4,15.6c13.9,0,27.2-5.4,38.6-15.7c8.6-7.7,17-15.6,25.2-23.1l0.9-0.8c2.5-2.3,4.9-4.6,7.4-6.9c77.2-71.4,142.3-138.1,199.1-203.9c58.8-68.1,104.4-131.9,139.6-195.1c42.1-75.7,66.9-146.8,75.7-217.1C991.4,286.3,991.2,254.7,985.6,225.1z M951.7,323.1c-8.2,65.9-31.6,132.8-71.5,204.5c-34,61.1-78.3,123-135.5,189.3c-55.9,64.8-120.2,130.5-196.4,201.1c-2.8,2.6-5.6,5.2-8.3,7.7l-0.3,0.3c-8,7.4-16.3,15.1-24.5,22.5c-2.3,2-5.5,4.4-9.3,5.7V197.8c9.6-1.6,18.1-7,24-15.5c4.1-5.9,8-12,11.9-17.9c4.8-7.5,9.8-15.2,15-22.3c23.2-31.7,48.8-55.5,78.1-72.6C663,53.1,694.3,44.8,728,44.8c4.8,0,9.8,0.2,14.7,0.5c37.5,2.5,71.6,13,101.3,31.3c58.5,35.8,94.6,87.9,107.3,155.1C956.3,257.5,956.4,285.7,951.7,323.1z"/></g>
</svg>