<?xml version="1.0" encoding="UTF-8" standalone="no"?>
<!-- Svg Vector Icons : http://www.onlinewebfonts.com/icon -->

<svg
   version="1.1"
   x="0px"
   y="0px"
   viewBox="0 0 1000 1000"
   enable-background="new 0 0 1000 1000"
   xml:space="preserve"
   id="svg5354"
   sodipodi:docname="heart-half.svg"
   inkscape:version="1.1.1 (3bf5ae0d25, 2021-09-20)"
   xmlns:inkscape="http://www.inkscape.org/namespaces/inkscape"
   xmlns:sodipodi="http://sodipodi.sourceforge.net/DTD/sodipodi-0.dtd"
   xmlns="http://www.w3.org/2000/svg"
   xmlns:svg="http://www.w3.org/2000/svg"><defs
   id="defs5358" /><sodipodi:namedview
   id="namedview5356"
   pagecolor="#ffffff"
   bordercolor="#666666"
   borderopacity="1.0"
   inkscape:pageshadow="2"
   inkscape:pageopacity="0.0"
   inkscape:pagecheckerboard="0"
   showgrid="false"
   inkscape:zoom="0.848"
   inkscape:cx="499.41038"
   inkscape:cy="422.16981"
   inkscape:window-width="1908"
   inkscape:window-height="1053"
   inkscape:window-x="0"
   inkscape:window-y="0"
   inkscape:window-maximized="1"
   inkscape:current-layer="g5352" />
<metadata
   id="metadata5348"> Svg Vector Icons : http://www.onlinewebfonts.com/icon </metadata>
<g
   id="g5352"><path
     d="m 493,153.8 -0.1,-0.1 c -0.6,-1 -1.2,-2 -1.9,-3.1 -20.4,-32.7 -42.2,-59.2 -66.8,-81 -26,-23 -53,-38.9 -82.5,-48.8 -22,-7.4 -44.6,-11 -69.3,-11 h -1.1 -1.2 -0.8 c -1.2,0 -2.4,0 -3.6,0.1 V 10 C 125,10 10.8,122 10.4,260.3 c -0.3,6.8 -0.5,13.6 -0.4,20.6 0.9,40.6 7.3,81.8 19.1,122.4 18.6,64.1 48.6,127.5 91.6,193.8 37.6,57.9 83,115.9 138.7,177.3 58,63.9 124,129.3 202,200 C 472.7,984.6 486,990 499.8,990 549.85969,-371.15615 421.39903,373.66414 493,153.8 Z m 12.9,800.4 c -6.62145,-476.86551 -4.51455,-318.89539 0,0 z"
     id="path5350"
     sodipodi:nodetypes="cccccsccscccccccccccc" /></g>
</svg>
