<!-- Generated by IcoMoon.io -->
<svg version="1.1" xmlns="http://www.w3.org/2000/svg" width="24" height="28" viewBox="0 0 24 28">
<title>microchip</title>
<path d="M3 20v2h-1.75c-0.141 0-0.25-0.109-0.25-0.25v-0.25h-0.75c-0.141 0-0.25-0.109-0.25-0.25v-0.5c0-0.141 0.109-0.25 0.25-0.25h0.75v-0.25c0-0.141 0.109-0.25 0.25-0.25h1.75zM3 16v2h-1.75c-0.141 0-0.25-0.109-0.25-0.25v-0.25h-0.75c-0.141 0-0.25-0.109-0.25-0.25v-0.5c0-0.141 0.109-0.25 0.25-0.25h0.75v-0.25c0-0.141 0.109-0.25 0.25-0.25h1.75zM3 12v2h-1.75c-0.141 0-0.25-0.109-0.25-0.25v-0.25h-0.75c-0.141 0-0.25-0.109-0.25-0.25v-0.5c0-0.141 0.109-0.25 0.25-0.25h0.75v-0.25c0-0.141 0.109-0.25 0.25-0.25h1.75zM3 8v2h-1.75c-0.141 0-0.25-0.109-0.25-0.25v-0.25h-0.75c-0.141 0-0.25-0.109-0.25-0.25v-0.5c0-0.141 0.109-0.25 0.25-0.25h0.75v-0.25c0-0.141 0.109-0.25 0.25-0.25h1.75zM3 4v2h-1.75c-0.141 0-0.25-0.109-0.25-0.25v-0.25h-0.75c-0.141 0-0.25-0.109-0.25-0.25v-0.5c0-0.141 0.109-0.25 0.25-0.25h0.75v-0.25c0-0.141 0.109-0.25 0.25-0.25h1.75zM20 1.5v23c0 0.828-0.672 1.5-1.5 1.5h-13c-0.828 0-1.5-0.672-1.5-1.5v-23c0-0.828 0.672-1.5 1.5-1.5h13c0.828 0 1.5 0.672 1.5 1.5zM24 20.75v0.5c0 0.141-0.109 0.25-0.25 0.25h-0.75v0.25c0 0.141-0.109 0.25-0.25 0.25h-1.75v-2h1.75c0.141 0 0.25 0.109 0.25 0.25v0.25h0.75c0.141 0 0.25 0.109 0.25 0.25zM24 16.75v0.5c0 0.141-0.109 0.25-0.25 0.25h-0.75v0.25c0 0.141-0.109 0.25-0.25 0.25h-1.75v-2h1.75c0.141 0 0.25 0.109 0.25 0.25v0.25h0.75c0.141 0 0.25 0.109 0.25 0.25zM24 12.75v0.5c0 0.141-0.109 0.25-0.25 0.25h-0.75v0.25c0 0.141-0.109 0.25-0.25 0.25h-1.75v-2h1.75c0.141 0 0.25 0.109 0.25 0.25v0.25h0.75c0.141 0 0.25 0.109 0.25 0.25zM24 8.75v0.5c0 0.141-0.109 0.25-0.25 0.25h-0.75v0.25c0 0.141-0.109 0.25-0.25 0.25h-1.75v-2h1.75c0.141 0 0.25 0.109 0.25 0.25v0.25h0.75c0.141 0 0.25 0.109 0.25 0.25zM24 4.75v0.5c0 0.141-0.109 0.25-0.25 0.25h-0.75v0.25c0 0.141-0.109 0.25-0.25 0.25h-1.75v-2h1.75c0.141 0 0.25 0.109 0.25 0.25v0.25h0.75c0.141 0 0.25 0.109 0.25 0.25z"></path>
</svg>
