<?xml version="1.0" encoding="iso-8859-1"?>
<!-- Generator: Adobe Illustrator 18.1.1, SVG Export Plug-In . SVG Version: 6.00 Build 0)  -->
<svg version="1.1" id="Capa_1" xmlns="http://www.w3.org/2000/svg" xmlns:xlink="http://www.w3.org/1999/xlink" x="0px" y="0px"
	 viewBox="0 0 349.179 349.179" style="enable-background:new 0 0 349.179 349.179;" xml:space="preserve">
<g>
	<g>
		<path style="fill:#010002;" d="M250.108,77.539c0.154,0,0.276-0.081,0.431-0.089h73.206l-46.788,46.796
			c-3.178,3.178-3.178,8.316,0,11.494c1.585,1.585,3.666,2.382,5.747,2.382s4.162-0.797,5.747-2.382L346.789,77.4
			c3.186-3.178,3.186-8.324,0-11.502l-2.325-2.325v-0.008L283.801,2.902c-3.178-3.178-8.316-3.178-11.494,0
			c-3.178,3.17-3.178,8.316,0,11.502L319.095,61.2h-89.292c-0.244,0-0.496,0.057-0.748,0.081h-1.471
			c-1.057,0-2.113,0.211-3.105,0.626c-1,0.415-1.894,1.008-2.65,1.764L95.348,271.438H75.661H12.347H8.137
			c-4.495,0-8.129,3.633-8.129,8.129s3.633,8.129,8.129,8.129h4.211h64.199h22.167c1.057,0,2.113-0.203,3.105-0.618
			c1-0.415,1.894-1.016,2.65-1.764L230.957,77.539H250.108z"/>
		<path style="fill:#010002;" d="M288.451,213.44c-1.585-1.585-3.666-2.382-5.747-2.382c-2.081,0-4.162,0.797-5.747,2.382
			c-3.178,3.178-3.178,8.299,0,11.494l46.788,46.788h-73.206c-0.154,0-0.276-0.081-0.431-0.081h-19.151l-49.568-81.424
			l-8.787,14.428l49.235,80.855c0.756,0.764,1.65,1.349,2.65,1.764c0.992,0.415,2.048,0.634,3.105,0.634h1.471
			c0.252,0.016,0.504,0.081,0.748,0.081h89.284l-46.788,46.788c-3.178,3.194-3.178,8.332,0,11.51c3.178,3.178,8.316,3.178,11.494,0
			l60.664-60.664v-0.016l2.325-2.317c3.186-3.178,3.186-8.332,0-11.51L288.451,213.44z"/>
		<path style="fill:#010002;" d="M8.137,77.742h4.211h63.313h19.687l49.446,81.221l8.779-14.42l-49.113-80.66
			c-0.748-0.756-1.65-1.349-2.65-1.764c-0.992-0.415-2.04-0.626-3.105-0.626H76.539H12.339H8.129C3.633,61.493,0,65.134,0,69.621
			C0.008,74.1,3.642,77.742,8.137,77.742z"/>
	</g>
</g>
<g>
</g>
<g>
</g>
<g>
</g>
<g>
</g>
<g>
</g>
<g>
</g>
<g>
</g>
<g>
</g>
<g>
</g>
<g>
</g>
<g>
</g>
<g>
</g>
<g>
</g>
<g>
</g>
<g>
</g>
</svg>
