<?xml version="1.0" encoding="iso-8859-1"?>
<!-- Generator: Adobe Illustrator 19.0.0, SVG Export Plug-In . SVG Version: 6.00 Build 0)  -->
<svg version="1.1" id="Layer_1" xmlns="http://www.w3.org/2000/svg" xmlns:xlink="http://www.w3.org/1999/xlink" x="0px" y="0px"
	 viewBox="0 0 481.882 481.882" style="enable-background:new 0 0 481.882 481.882;" xml:space="preserve">
<g>
	<g>
		<path d="M240.923,115.253c-81.078,0-147.04,65.963-147.04,147.043c0,81.077,65.963,147.041,147.04,147.041
			c81.081,0,147.044-65.964,147.044-147.041C387.967,181.216,322.004,115.253,240.923,115.253z M323.901,343.541
			c-0.684,0.684-1.58,1.027-2.477,1.027c-0.897,0-1.793-0.343-2.477-1.027l-68.4-68.399c-2.612,1.865-5.786,2.99-9.233,2.99
			c-6.276,0-11.663-3.672-14.27-8.953h-63.118c-3.873,0-7.008-3.134-7.008-7.008c0-3.873,3.134-7.009,7.008-7.009h63.118
			c0.381-0.771,0.855-1.481,1.349-2.174l-11.5-11.5c-1.37-1.369-1.37-3.588,0-4.956c1.369-1.369,3.586-1.369,4.954,0l11.773,11.772
			c0.779-0.433,1.581-0.833,2.436-1.134v-82.687c0-2.903,2.354-5.257,5.257-5.257c2.901,0,5.256,2.354,5.256,5.257v82.687
			c6.213,2.185,10.705,8.049,10.705,15c0,2.812-0.793,5.417-2.074,7.713l68.702,68.702
			C325.271,339.955,325.271,342.173,323.901,343.541z"/>
	</g>
</g>
<g>
	<g>
		<path d="M448.509,45.553l2.334-2.259c2.936-3.012,2.936-7.755,0-10.692s-7.755-2.936-10.692,0l-2.259,2.259
			c-30.268-25.148-74.165-25.751-105.035-0.151c-3.087,2.485-4.894,6.174-5.12,10.165c-0.151,3.991,1.355,7.906,4.141,10.692
			l42.692,42.692l-6.551,6.551c-32.904-26.654-74.315-43.143-119.567-44.8v-4.593c11.896-3.238,20.706-14.155,20.706-27.181
			C269.158,12.649,256.509,0,240.923,0s-28.235,12.649-28.235,28.235c0,13.026,8.809,23.944,20.706,27.181v4.593
			c-45.779,1.656-87.642,18.522-120.772,45.704l-5.421-5.497l42.767-42.767c2.786-2.861,4.292-6.776,4.141-10.767
			c-0.226-3.915-2.033-7.605-5.12-10.165c-15.36-12.649-33.882-18.899-52.329-18.899c-18.823,0-37.572,6.475-52.781,19.275
			l-2.184-2.184c-2.936-2.936-7.755-2.936-10.692,0s-2.936,7.68,0,10.616l2.184,2.184c-25.073,30.193-25.6,74.014-0.075,104.96
			c2.485,3.012,6.174,4.894,10.165,5.045c0.226,0,0.452,0.075,0.678,0.075c3.765,0,7.379-1.506,10.014-4.216l42.541-42.466
			l4.894,4.819c-38.776,36.894-62.946,88.998-62.946,146.598c0,62.042,28.085,117.685,72.207,154.805l-23.718,54.212
			c-1.054,2.334-0.828,5.045,0.602,7.153c1.355,2.108,3.765,3.388,6.325,3.388h23.793c2.635,0,5.045-1.355,6.4-3.614l22.438-36.894
			c28.16,14.908,60.311,23.417,94.419,23.417s66.259-8.508,94.419-23.417l22.438,36.894c1.355,2.259,3.765,3.614,6.4,3.614h23.868
			c2.485,0,4.894-1.28,6.249-3.388c1.431-2.108,1.656-4.819,0.602-7.153l-23.718-54.212c44.122-37.12,72.207-92.762,72.207-154.805
			c0-58.127-24.621-110.682-64-147.576l5.798-5.873l42.692,42.692c2.635,2.635,6.249,4.141,10.014,4.141h0.678
			c3.991-0.226,7.68-2.033,10.165-5.12c12.725-15.36,18.974-33.882,18.974-52.329C467.709,79.435,461.233,60.762,448.509,45.553z
			 M403.026,262.297c0,89.382-72.721,162.1-162.103,162.1c-89.382,0-162.099-72.718-162.099-162.1
			c0-89.382,72.717-162.102,162.099-162.102C330.305,100.195,403.026,172.915,403.026,262.297z"/>
	</g>
</g>
<g>
</g>
<g>
</g>
<g>
</g>
<g>
</g>
<g>
</g>
<g>
</g>
<g>
</g>
<g>
</g>
<g>
</g>
<g>
</g>
<g>
</g>
<g>
</g>
<g>
</g>
<g>
</g>
<g>
</g>
</svg>
