<?xml version="1.0" encoding="UTF-8" standalone="no"?>
<!-- Generated by IcoMoon.io -->

<svg
   version="1.1"
   width="32"
   height="28"
   viewBox="0 0 32 28"
   id="svg3628"
   sodipodi:docname="window-restore.svg"
   inkscape:version="1.1.1 (3bf5ae0d25, 2021-09-20)"
   xmlns:inkscape="http://www.inkscape.org/namespaces/inkscape"
   xmlns:sodipodi="http://sodipodi.sourceforge.net/DTD/sodipodi-0.dtd"
   xmlns="http://www.w3.org/2000/svg"
   xmlns:svg="http://www.w3.org/2000/svg">
  <defs
     id="defs3632" />
  <sodipodi:namedview
     id="namedview3630"
     pagecolor="#ffffff"
     bordercolor="#666666"
     borderopacity="1.0"
     inkscape:pageshadow="2"
     inkscape:pageopacity="0.0"
     inkscape:pagecheckerboard="0"
     showgrid="false"
     inkscape:zoom="23"
     inkscape:cx="15.978261"
     inkscape:cy="14"
     inkscape:window-width="1908"
     inkscape:window-height="1053"
     inkscape:window-x="0"
     inkscape:window-y="0"
     inkscape:window-maximized="1"
     inkscape:current-layer="svg3628" />
  <title
     id="title3624">window-restore</title>
  <path
     d="M 6.1453734,22.364316 H 16 V 15.672863 H 6.1453734 Z M 19.284876,15.672863 h 6.569751 V 5.6356846 H 16 v 3.3457266 h 1.231828 c 1.129176,0 2.053048,0.9409854 2.053048,2.0910788 z M 29.139502,4.3810373 V 16.927511 c 0,1.150093 -0.923871,2.091078 -2.053047,2.091078 h -7.801579 v 4.600374 c 0,1.150094 -0.923872,2.091079 -2.053048,2.091079 H 4.9135451 c -1.129176,0 -2.0530473,-0.940985 -2.0530473,-2.091079 V 11.07249 c 0,-1.1500934 0.9238713,-2.0910788 2.0530473,-2.0910788 H 12.715124 V 4.3810373 c 0,-1.1500934 0.923871,-2.0910788 2.053048,-2.0910788 h 12.318283 c 1.129176,0 2.053047,0.9409855 2.053047,2.0910788 z"
     id="path3626"
     style="stroke-width:0.82879" />
</svg>
