<?xml version="1.0" encoding="UTF-8"?>
<!-- Generator: Adobe Illustrator 16.0.0, SVG Export Plug-In . SVG Version: 6.00 Build 0)  -->
<!DOCTYPE svg PUBLIC "-//W3C//DTD SVG 1.1//EN" "http://www.w3.org/Graphics/SVG/1.1/DTD/svg11.dtd">
<svg version="1.1" id="Layer_1" xmlns="http://www.w3.org/2000/svg" xmlns:xlink="http://www.w3.org/1999/xlink" x="0px" y="0px" width="100px" height="100px" viewBox="0 0 100 100" enable-background="new 0 0 100 100" xml:space="preserve">
<path fill-rule="evenodd" clip-rule="evenodd" d="M90.439,74.078c-2.887,2.092-7.396,1.937-10.172-0.703  c-2.946-2.801-4.772-6.191-7.536-9.578c-1.311-1.604-2.554-2.51-5.52-1.532c-5.827,1.925-12.122,2.385-18.167,2.251  c-4.921-0.039-10.44-0.257-16.268-2.179c-2.965-0.979-4.208-0.074-5.518,1.532c-2.765,3.386-4.59,6.774-7.537,9.577  c-2.774,2.638-7.284,2.795-10.172,0.701c-4.115-2.981-5.05-5.521-3.999-9.502c1.651-6.257,4.861-18.797,6.454-25.07  c3.168-12.472,6.024-14.504,17.217-15.052c2.587-0.126,5.966-0.143,8.119,3.36c0.952,1.55,2.566,1.302,4.079,1.299h17.15  c1.514,0.003,3.125,0.181,4.08-1.369c2.151-3.503,5.529-3.488,8.117-3.361c11.193,0.549,14.063,2.576,17.218,15.053  c2.113,8.364,4.056,16.209,6.454,25.069C95.515,68.55,94.555,71.096,90.439,74.078z M36.159,41.921h-4.498v-4.498  c0-1.324-1.074-2.398-2.398-2.398h-1.865c-1.325,0-2.398,1.074-2.398,2.398v4.498h-4.498c-1.324,0-2.398,1.073-2.398,2.398v1.865  c0,1.324,1.074,2.398,2.398,2.398h4.498v4.499c0,1.324,1.074,2.396,2.398,2.396h1.865c1.324,0,2.398-1.072,2.398-2.396v-4.499h4.498  c1.324,0,2.397-1.074,2.397-2.398V44.32C38.556,42.995,37.483,41.921,36.159,41.921z M69.893,34.913  c-2.487,0-4.506,2.018-4.506,4.506c0,2.487,2.019,4.504,4.506,4.504c2.488,0,4.507-2.017,4.507-4.504  C74.399,36.931,72.381,34.913,69.893,34.913z M63.333,46.187c-2.486,0-4.504,2.017-4.504,4.504c0,2.488,2.018,4.506,4.504,4.506  c2.488,0,4.506-2.018,4.506-4.506C67.839,48.204,65.821,46.187,63.333,46.187z M76.453,46.187c-2.49,0-4.504,2.017-4.504,4.504  c0,2.488,2.014,4.506,4.504,4.506c2.488,0,4.504-2.018,4.504-4.506C80.957,48.204,78.941,46.187,76.453,46.187z"/>
</svg>