<?xml version="1.0" encoding="utf-8"?>
<!-- Svg Vector Icons : http://www.onlinewebfonts.com/icon -->
<!DOCTYPE svg PUBLIC "-//W3C//DTD SVG 1.1//EN" "http://www.w3.org/Graphics/SVG/1.1/DTD/svg11.dtd">
<svg version="1.1" xmlns="http://www.w3.org/2000/svg" xmlns:xlink="http://www.w3.org/1999/xlink" x="0px" y="0px" viewBox="0 0 1000 1000" enable-background="new 0 0 1000 1000" xml:space="preserve">
<metadata> Svg Vector Icons : http://www.onlinewebfonts.com/icon </metadata>
<g><g transform="translate(0.000000,511.000000) scale(0.100000,-0.100000)"><path d="M4546.6,3904.9l-374-214.3l52.6-95.4c27.3-52.6,56.5-95.5,64.3-95.5c7.8,0,105.2,52.6,214.3,116.9c111,64.3,204.6,113,206.5,111c1.9-1.9-33.1-181.2-77.9-397.4l-79.9-393.5l48.7-89.6c25.3-48.7,54.5-87.7,62.3-87.7c7.8,0,194.8,101.3,414.9,226l397.4,226l-35.1,70.1c-79.9,153.9-64.3,153.9-313.7,11.7c-247.4-142.2-284.4-159.7-266.9-130.5c5.9,9.7,46.8,192.9,91.6,403.3l77.9,385.7l-50.6,85.7c-27.3,46.8-52.6,85.7-52.6,83.8C4924.5,4119.2,4753,4021.8,4546.6,3904.9z"/><path d="M3480.9,2669.8c-288.3-159.7-286.4-159.7-264.9-198.7c52.6-91.6,50.6-91.6,177.3-13.6c64.3,39,124.7,68.2,130.5,62.3c5.8-5.8-13.6-116.9-40.9-247.4c-48.7-231.8-48.7-247.4,3.9-327.3c13.6-19.5,68.2,3.9,229.9,95.4c333.1,189,303.9,163.6,264.9,231.8c-17.5,31.2-40.9,58.4-48.7,58.4c-9.7,0-77.9-35.1-153.9-79.9c-74-42.9-138.3-76-142.2-72.1c-1.9,1.9,17.5,113,44.8,245.5c44.8,214.3,46.8,245.5,21.4,296.1l-27.3,58.4L3480.9,2669.8z"/><path d="M2058.8,1432.8c-206.5-33.1-418.8-150-547.4-298.1c-39-42.9-101.3-144.2-140.3-224c-62.3-128.6-70.1-163.6-77.9-340.9c-5.8-165.6-1.9-216.3,33.1-321.4C1412,0.9,1575.7-188,1803.6-299.1c574.7-278.6,1258.5,111,1311.1,744.2c40.9,477.3-302,915.6-773.4,989.6C2201,1456.2,2195.2,1456.2,2058.8,1432.8z"/><path d="M217.9,1226.3c-37-19.5-77.9-56.5-91.6-83.8c-35.1-70.1-35.1-4858.6,0-4926.8c48.7-97.4,134.4-120.8,409.1-114.9l251.3,5.8l56.5,64.3l56.5,62.3v389.6v389.6h4100.8h4100.8v-370.1c0-418.8,9.7-459.7,126.6-514.3c58.4-27.3,114.9-33.1,315.6-27.3l243.5,5.8l56.5,64.3l56.5,62.3v1765c0,1934.5,5.8,1842.9-116.9,1907.2c-39,21.4-116.9,29.2-263,29.2c-229.9,0-309.8-23.4-376-107.1c-42.9-54.5-42.9-56.5-42.9-1092.9v-1040.3H5000.5H899.7v1714.3V1123l-56.5,62.3l-56.5,64.3l-251.3,5.8C327,1259.4,274.4,1255.5,217.9,1226.3z"/><path d="M5097.9,858.1c-487-13.6-1451.3-68.2-1679.3-97.4l-83.8-9.7V244.4v-504.6h2707.9h2707.9v103.3c-1.9,524-839.6,888.3-2269.5,985.7C6149.8,850.3,5446.6,865.9,5097.9,858.1z"/><path d="M1402.3-622.5c-107.1-56.5-113-93.5-113-679.9c0-348.7,7.8-551.3,21.4-578.6c52.6-97.4-109.1-93.5,3718.9-93.5c3849.4,0,3646.8-5.8,3701.4,95.4c11.7,23.4,19.5,245.5,19.5,576.7c0,442.2-5.8,547.4-29.2,594.2C8657-583.5,8929.8-591.3,5016-591.3C1904.9-593.3,1449.1-597.1,1402.3-622.5z"/></g></g>
</svg>