<?xml version="1.0" standalone="no"?>
<!DOCTYPE svg PUBLIC "-//W3C//DTD SVG 20010904//EN"
 "http://www.w3.org/TR/2001/REC-SVG-20010904/DTD/svg10.dtd">
<svg version="1.0" xmlns="http://www.w3.org/2000/svg"
 width="1280.000000pt" height="996.000000pt" viewBox="0 0 1280.000000 996.000000"
 preserveAspectRatio="xMidYMid meet">
<metadata>
Created by potrace 1.15, written by Peter Selinger 2001-2017
</metadata>
<g transform="translate(0.000000,996.000000) scale(0.100000,-0.100000)"
fill="#000000" stroke="none">
<path d="M813 9945 c-422 -76 -743 -408 -803 -830 -8 -59 -10 -832 -8 -2875
l3 -2795 22 -77 c107 -375 374 -635 743 -724 71 -18 246 -19 3665 -24 l3590
-5 675 -536 675 -537 814 -771 815 -771 118 0 118 0 0 48 c0 26 -22 492 -50
1037 -27 545 -54 1087 -60 1205 -5 118 -12 240 -15 272 l-6 56 423 5 c353 3
435 7 497 21 218 51 418 175 551 341 96 122 147 223 193 385 l22 75 3 2795 c2
2043 0 2816 -8 2875 -53 368 -304 672 -655 792 -167 57 241 53 -5744 52 -4472
-1 -5519 -3 -5578 -14z"/>
</g>
</svg>
