<?xml version="1.0" encoding="UTF-8" standalone="no"?>
<svg
   version="1.0"
   width="1280.000000pt"
   height="996.000000pt"
   viewBox="0 0 1280.000000 996.000000"
   preserveAspectRatio="xMidYMid meet"
   id="svg110"
   sodipodi:docname="notif.svg"
   inkscape:version="1.1 (c4e8f9ed74, 2021-05-24)"
   xmlns:inkscape="http://www.inkscape.org/namespaces/inkscape"
   xmlns:sodipodi="http://sodipodi.sourceforge.net/DTD/sodipodi-0.dtd"
   xmlns="http://www.w3.org/2000/svg"
   xmlns:svg="http://www.w3.org/2000/svg">
  <defs
     id="defs114" />
  <sodipodi:namedview
     id="namedview112"
     pagecolor="#ffffff"
     bordercolor="#666666"
     borderopacity="1.0"
     inkscape:pageshadow="2"
     inkscape:pageopacity="0.0"
     inkscape:pagecheckerboard="0"
     inkscape:document-units="pt"
     showgrid="false"
     inkscape:zoom="0.57756024"
     inkscape:cx="852.7249"
     inkscape:cy="80.511082"
     inkscape:window-width="1904"
     inkscape:window-height="1009"
     inkscape:window-x="0"
     inkscape:window-y="0"
     inkscape:window-maximized="1"
     inkscape:current-layer="svg110" />
  <metadata
     id="metadata104">
Created by potrace 1.15, written by Peter Selinger 2001-2017
</metadata>
  <g
     transform="translate(0.000000,996.000000) scale(0.100000,-0.100000)"
     fill="#000000"
     stroke="none"
     id="g108">
    <path
       d="M813 9945 c-422 -76 -743 -408 -803 -830 -8 -59 -10 -832 -8 -2875 l3 -2795 22 -77 c107 -375 374 -635 743 -724 71 -18 246 -19 3665 -24 l3590 -5 675 -536 675 -537 814 -771 815 -771 118 0 118 0 0 48 c0 26 -22 492 -50 1037 -27 545 -54 1087 -60 1205 -5 118 -12 240 -15 272 l-6 56 423 5 c353 3 435 7 497 21 218 51 418 175 551 341 96 122 147 223 193 385 l22 75 3 2795 c2 2043 0 2816 -8 2875 -53 368 -304 672 -655 792 -167 57 241 53 -5744 52 -4472 -1 -5519 -3 -5578 -14z"
       id="path106" />
  </g>
  <path
     style="fill:#ffffff;stroke-width:1.73142"
     d="m 1359.8463,1224.8117 -108.0288,-102.3226 -87.3229,-69.521 c -48.0275,-38.2365 -88.8092,-70.58919 -90.626,-71.89489 -2.7693,-1.99034 -81.13326,-2.57183 -484.9118,-3.5982 L 107.34811,976.25079 95.228162,972.3176 C 50.116639,957.67801 19.664368,926.55097 5.3301609,880.42764 L 0.75638673,865.71056 1.264545,487.39505 C 1.8373489,60.951834 0.36062541,103.16357 15.7871,72.271763 31.959731,39.88576 61.776025,15.654741 98.691004,4.8976595 108.49065,2.0420273 148.82889,1.8374913 810.30508,1.2894044 1205.833,0.96167717 1532.2879,1.3906414 1559.1447,2.2733854 l 47.6141,1.5650038 14.386,5.6044575 c 37.1112,14.4576173 64.7614,43.1717703 77.605,80.5910513 4.6773,13.627162 4.7781,14.818282 6.2278,73.585402 0.8105,32.85371 0.9786,205.7033 0.3736,384.1102 l -1.1,324.37619 -5.0336,14.89134 c -14.1135,41.75343 -44.4286,71.37559 -87.2645,85.27002 -11.3987,3.69729 -15.6493,3.97761 -71.4212,4.70998 -58.4052,0.76697 -59.3011,0.83243 -59.3011,4.33351 0,5.34609 15.2969,316.92296 16.3195,332.40526 l 0.8863,13.4185 h -15.2808 -15.2807 z"
     id="path381"
     transform="scale(0.75)" />
</svg>
